<svg width="24" height="24" viewBox="0 0 24 24" fill="none" xmlns="http://www.w3.org/2000/svg">
<path d="M19.8005 6.28647C18.9125 7.18824 18.6846 8.4853 19.1045 9.59706L15.6009 13.2041V10.6471C15.6009 9.96765 15.061 9.41177 14.401 9.41177H13.1652C13.2012 9.20177 13.2012 9.00412 13.2012 8.79412C13.2012 5.03883 10.2495 2 6.60188 2C5.24265 1.99869 3.91622 2.42974 2.80404 3.23418C1.69186 4.03862 0.848242 5.17717 0.38859 6.49408C-0.071062 7.81099 -0.124299 9.24195 0.236161 10.5912C0.596621 11.9404 1.35317 13.1421 2.40233 14.0318V21.7647C2.40233 22.4441 2.94227 23 3.6022 23H14.401C15.061 23 15.6009 22.4441 15.6009 21.7647V16.6876L20.7963 11.3388C21.8762 11.7712 23.1361 11.5488 24 10.6471L19.8005 6.28647ZM2.46232 9.41177C2.43832 9.20177 2.40233 9.00412 2.40233 8.79412C2.40233 6.41 4.28613 4.47059 6.60188 4.47059C8.91763 4.47059 10.8014 6.41 10.8014 8.79412C10.8014 9.00412 10.7654 9.20177 10.7414 9.41177M13.2012 20.5294H4.80207V11.8824H13.2012V20.5294Z" fill="#151515"/>
</svg>
