<svg width="174" height="32" viewBox="0 0 174 32" fill="none" xmlns="http://www.w3.org/2000/svg">
<path d="M52.3692 27.5707H50V3.9247H52.3692V14.4597H65.1038V3.9247H67.4401V27.5707H65.1038V16.6724H52.3692V27.5707Z" fill="#6A994E"/>
<path d="M71.5888 19.5786C71.5888 14.6909 75.0111 11.1572 79.6837 11.1572C84.3563 11.1572 87.7786 14.6909 87.7786 19.5786C87.7786 24.4333 84.3563 27.967 79.6837 27.967C75.0111 27.967 71.5888 24.4333 71.5888 19.5786ZM73.8923 19.5456C73.8923 23.3104 76.2615 25.9194 79.6837 25.9194C83.073 25.9194 85.4751 23.3104 85.4751 19.5456C85.4751 15.8468 83.073 13.2048 79.6837 13.2048C76.2615 13.2048 73.8923 15.8468 73.8923 19.5456Z" fill="#6A994E"/>
<path d="M99.7352 11.3884V13.4359H98.4848C95.5562 13.4359 93.6805 15.4174 93.6805 18.4557V27.5707H91.41V11.5865H93.5489L93.7134 14.0634C94.3387 12.3461 96.0169 11.2232 98.2545 11.2232C98.7481 11.2232 99.1758 11.2563 99.7352 11.3884Z" fill="#6A994E"/>
<path d="M107.049 27.5707H104.811V13.502H101.619V11.5865H104.811V6.53369H107.049V11.5865H110.241V13.502H107.049V27.5707Z" fill="#6A994E"/>
<path d="M123.661 27.967C116.652 27.967 112.111 23.0793 112.111 15.5165C112.111 8.01981 116.817 3.03302 123.859 3.03302C129.552 3.03302 133.796 6.36856 134.619 11.5535H130.177C129.354 8.74637 126.952 7.09511 123.76 7.09511C119.318 7.09511 116.521 10.3316 116.521 15.4835C116.521 20.6024 119.351 23.9049 123.76 23.9049C127.018 23.9049 129.519 22.1876 130.308 19.5126H134.685C133.764 24.5984 129.354 27.967 123.661 27.967Z" fill="#6A994E"/>
<path d="M148.893 11.2563H152.908V27.5707H149.189L148.893 25.391C147.906 26.9432 145.8 28 143.628 28C139.877 28 137.672 25.4571 137.672 21.461V11.2563H141.687V20.041C141.687 23.1453 142.904 24.4003 145.142 24.4003C147.676 24.4003 148.893 22.9141 148.893 19.8098V11.2563Z" fill="#6A994E"/>
<path d="M161.102 27.5707H157.12V3H161.102V27.5707Z" fill="#6A994E"/>
<path d="M170.841 27.5707H166.827V14.6248H163.7V11.2563H166.827V6.17041H170.841V11.2563H174V14.6248H170.841V27.5707Z" fill="#6A994E"/>
<path d="M39.9382 1.31385C39.9191 0.987646 39.7809 0.679793 39.5498 0.44874C39.3187 0.217686 39.0109 0.0795184 38.6846 0.0604686C30.0565 -0.43955 23.1287 2.18388 20.1516 7.0974C18.1846 10.3459 18.1879 14.291 20.1249 18.0545C19.0224 19.3668 18.2167 20.9019 17.7629 22.5546L15.0508 19.8329C16.3543 17.1111 16.3043 14.2743 14.8841 11.9176C12.6837 8.28578 7.60456 6.33904 1.29853 6.70905C0.972289 6.7281 0.664398 6.86627 0.433316 7.09732C0.202233 7.32838 0.0640483 7.63623 0.0449961 7.96243C-0.326731 14.2677 1.62192 19.3462 5.25418 21.5463C6.45281 22.2785 7.83018 22.6661 9.23482 22.6663C10.5982 22.6495 11.9404 22.3266 13.1621 21.7213L17.3295 25.8881V30.6666C17.3295 31.0203 17.47 31.3594 17.7201 31.6095C17.9701 31.8595 18.3093 32 18.663 32C19.0167 32 19.3559 31.8595 19.606 31.6095C19.8561 31.3594 19.9966 31.0203 19.9966 30.6666V25.7514C19.9906 23.6302 20.7126 21.5711 22.0419 19.9179C23.7571 20.8141 25.6593 21.2938 27.5945 21.3179C29.4654 21.324 31.3016 20.8129 32.9003 19.8412C37.8145 16.8678 40.4449 9.94084 39.9382 1.31385ZM6.6294 19.2662C4.07232 17.7178 2.62542 14.0527 2.66042 9.33248C7.38119 9.29248 11.0468 10.7442 12.5954 13.301C13.4038 14.6343 13.5355 16.1894 13.0054 17.7911L8.93644 13.7226C8.68432 13.4831 8.3486 13.3516 8.00086 13.356C7.65312 13.3605 7.32088 13.5006 7.07497 13.7465C6.82906 13.9924 6.68894 14.3246 6.68449 14.6723C6.68004 15.0199 6.8116 15.3556 7.05114 15.6077L11.1201 19.6762C9.5182 20.2062 7.96462 20.0746 6.6294 19.2662ZM31.5184 17.5628C29.2847 18.9145 26.6593 19.0178 23.9922 17.8961L32.942 8.9458C33.1815 8.69371 33.3131 8.35803 33.3087 8.01034C33.3042 7.66264 33.1641 7.33044 32.9182 7.08456C32.6723 6.83868 32.34 6.69858 31.9923 6.69413C31.6446 6.68968 31.3088 6.82123 31.0567 7.06073L22.1052 15.9994C20.9784 13.3326 21.0801 10.7059 22.4386 8.47412C24.7623 4.64064 30.2732 2.50389 37.3294 2.6689C37.4894 9.7225 35.3557 15.2394 31.5184 17.5628Z" fill="url(#paint0_linear_46_2919)"/>
<defs>
<linearGradient id="paint0_linear_46_2919" x1="42.0835" y1="-2.91798" x2="7.58262" y2="35.0877" gradientUnits="userSpaceOnUse">
<stop stop-color="#6A994E"/>
<stop offset="1" stop-color="#2E5836"/>
</linearGradient>
</defs>
</svg>
