<svg width="33" height="32" viewBox="0 0 33 32" fill="none" xmlns="http://www.w3.org/2000/svg">
<path d="M19 29.3333H14C13.6667 29.3333 13.3778 29.2222 13.1334 29C12.8889 28.7778 12.7445 28.5 12.7 28.1667L12.3 25.0667C12.0112 24.9555 11.7387 24.8222 11.4827 24.6667C11.2267 24.5111 10.9769 24.3444 10.7334 24.1667L7.83338 25.3667C7.52227 25.4778 7.21115 25.4889 6.90004 25.4C6.58893 25.3111 6.34449 25.1222 6.16671 24.8333L3.70004 20.5333C3.52227 20.2444 3.46671 19.9333 3.53338 19.6C3.60004 19.2667 3.76671 19 4.03338 18.8L6.53338 16.9C6.51115 16.7444 6.50004 16.5942 6.50004 16.4493V15.5507C6.50004 15.4058 6.51115 15.2555 6.53338 15.1L4.03338 13.2C3.76671 13 3.60004 12.7333 3.53338 12.4C3.46671 12.0667 3.52227 11.7555 3.70004 11.4667L6.16671 7.16666C6.32227 6.85555 6.56093 6.66088 6.88271 6.58266C7.20449 6.50443 7.52138 6.52132 7.83338 6.63332L10.7334 7.83332C10.9778 7.65555 11.2334 7.48888 11.5 7.33332C11.7667 7.17777 12.0334 7.04443 12.3 6.93332L12.7 3.83332C12.7445 3.49999 12.8889 3.22221 13.1334 2.99999C13.3778 2.77777 13.6667 2.66666 14 2.66666H19C19.3334 2.66666 19.6223 2.77777 19.8667 2.99999C20.1112 3.22221 20.2556 3.49999 20.3 3.83332L20.7 6.93332C20.9889 7.04443 21.2614 7.17777 21.5174 7.33332C21.7734 7.48888 22.0232 7.65555 22.2667 7.83332L25.1667 6.63332C25.4778 6.52221 25.7889 6.5111 26.1 6.59999C26.4112 6.68888 26.6556 6.87777 26.8334 7.16666L29.3 11.4667C29.4778 11.7555 29.5334 12.0667 29.4667 12.4C29.4 12.7333 29.2334 13 28.9667 13.2L26.4667 15.1C26.4889 15.2555 26.5 15.4058 26.5 15.5507V16.4493C26.5 16.5942 26.4778 16.7444 26.4334 16.9L28.9334 18.8C29.2 19 29.3667 19.2667 29.4334 19.6C29.5 19.9333 29.4445 20.2444 29.2667 20.5333L26.8 24.8C26.6223 25.0889 26.372 25.2835 26.0494 25.384C25.7267 25.4844 25.4103 25.4787 25.1 25.3667L22.2667 24.1667C22.0223 24.3444 21.7667 24.5111 21.5 24.6667C21.2334 24.8222 20.9667 24.9555 20.7 25.0667L20.3 28.1667C20.2556 28.5 20.1112 28.7778 19.8667 29C19.6223 29.2222 19.3334 29.3333 19 29.3333ZM16.5667 20.6667C17.8556 20.6667 18.9556 20.2111 19.8667 19.3C20.7778 18.3889 21.2334 17.2889 21.2334 16C21.2334 14.7111 20.7778 13.6111 19.8667 12.7C18.9556 11.7889 17.8556 11.3333 16.5667 11.3333C15.2556 11.3333 14.1498 11.7889 13.2494 12.7C12.3489 13.6111 11.8992 14.7111 11.9 16C11.9 17.2889 12.3498 18.3889 13.2494 19.3C14.1489 20.2111 15.2547 20.6667 16.5667 20.6667ZM16.5667 18C16.0112 18 15.5387 17.8053 15.1494 17.416C14.76 17.0267 14.5658 16.5547 14.5667 16C14.5667 15.4444 14.7614 14.972 15.1507 14.5827C15.54 14.1933 16.012 13.9991 16.5667 14C17.1223 14 17.5947 14.1947 17.984 14.584C18.3734 14.9733 18.5676 15.4453 18.5667 16C18.5667 16.5555 18.372 17.028 17.9827 17.4173C17.5934 17.8067 17.1214 18.0009 16.5667 18ZM15.1667 26.6667H17.8L18.2667 23.1333C18.9556 22.9555 19.5947 22.6942 20.184 22.3493C20.7734 22.0044 21.312 21.588 21.8 21.1L25.1 22.4667L26.4 20.2L23.5334 18.0333C23.6445 17.7222 23.7223 17.3947 23.7667 17.0507C23.8112 16.7067 23.8334 16.3564 23.8334 16C23.8334 15.6444 23.8112 15.2947 23.7667 14.9507C23.7223 14.6067 23.6445 14.2787 23.5334 13.9667L26.4 11.8L25.1 9.53332L21.8 10.9333C21.3112 10.4222 20.7725 9.99466 20.184 9.65066C19.5956 9.30666 18.9565 9.04532 18.2667 8.86666L17.8334 5.33332H15.2L14.7334 8.86666C14.0445 9.04443 13.4058 9.30577 12.8174 9.65066C12.2289 9.99555 11.6898 10.412 11.2 10.9L7.90004 9.53332L6.60004 11.8L9.46671 13.9333C9.3556 14.2667 9.27782 14.6 9.23338 14.9333C9.18893 15.2667 9.16671 15.6222 9.16671 16C9.16671 16.3555 9.18893 16.7 9.23338 17.0333C9.27782 17.3667 9.3556 17.7 9.46671 18.0333L6.60004 20.2L7.90004 22.4667L11.2 21.0667C11.6889 21.5778 12.228 22.0058 12.8174 22.3507C13.4067 22.6955 14.0454 22.9564 14.7334 23.1333L15.1667 26.6667Z" fill="#A7C957"/>
</svg>
