<svg width="33" height="32" viewBox="0 0 33 32" fill="none" xmlns="http://www.w3.org/2000/svg">
<path d="M18.8328 29.3333H13.8328C13.4995 29.3333 13.2106 29.2222 12.9661 29C12.7217 28.7778 12.5773 28.5 12.5328 28.1667L12.1328 25.0667C11.8439 24.9556 11.5715 24.8222 11.3155 24.6667C11.0595 24.5111 10.8097 24.3444 10.5661 24.1667L7.66614 25.3667C7.35503 25.4778 7.04392 25.4889 6.73281 25.4C6.4217 25.3111 6.17725 25.1222 5.99947 24.8333L3.53281 20.5333C3.35503 20.2444 3.29947 19.9333 3.36614 19.6C3.43281 19.2667 3.59947 19 3.86614 18.8L6.36614 16.9C6.34392 16.7445 6.33281 16.5942 6.33281 16.4493V15.5507C6.33281 15.4058 6.34392 15.2556 6.36614 15.1L3.86614 13.2C3.59947 13 3.43281 12.7333 3.36614 12.4C3.29947 12.0667 3.35503 11.7556 3.53281 11.4667L5.99947 7.16667C6.15503 6.85556 6.3937 6.66089 6.71547 6.58267C7.03725 6.50445 7.35414 6.52134 7.66614 6.63334L10.5661 7.83334C10.8106 7.65556 11.0661 7.48889 11.3328 7.33334C11.5995 7.17778 11.8661 7.04445 12.1328 6.93334L12.5328 3.83334C12.5773 3.50001 12.7217 3.22223 12.9661 3.00001C13.2106 2.77778 13.4995 2.66667 13.8328 2.66667H18.8328C19.1661 2.66667 19.455 2.77778 19.6995 3.00001C19.9439 3.22223 20.0884 3.50001 20.1328 3.83334L20.5328 6.93334C20.8217 7.04445 21.0941 7.17778 21.3501 7.33334C21.6061 7.48889 21.8559 7.65556 22.0995 7.83334L24.9995 6.63334C25.3106 6.52223 25.6217 6.51112 25.9328 6.6C26.2439 6.68889 26.4884 6.87778 26.6661 7.16667L29.1328 11.4667C29.3106 11.7556 29.3661 12.0667 29.2995 12.4C29.2328 12.7333 29.0661 13 28.7995 13.2L26.2995 15.1C26.3217 15.2556 26.3328 15.4058 26.3328 15.5507V16.4493C26.3328 16.5942 26.3106 16.7445 26.2661 16.9L28.7661 18.8C29.0328 19 29.1995 19.2667 29.2661 19.6C29.3328 19.9333 29.2773 20.2444 29.0995 20.5333L26.6328 24.8C26.455 25.0889 26.2048 25.2836 25.8821 25.384C25.5595 25.4845 25.243 25.4787 24.9328 25.3667L22.0995 24.1667C21.855 24.3444 21.5995 24.5111 21.3328 24.6667C21.0661 24.8222 20.7995 24.9556 20.5328 25.0667L20.1328 28.1667C20.0884 28.5 19.9439 28.7778 19.6995 29C19.455 29.2222 19.1661 29.3333 18.8328 29.3333ZM16.3995 20.6667C17.6884 20.6667 18.7884 20.2111 19.6995 19.3C20.6106 18.3889 21.0661 17.2889 21.0661 16C21.0661 14.7111 20.6106 13.6111 19.6995 12.7C18.7884 11.7889 17.6884 11.3333 16.3995 11.3333C15.0884 11.3333 13.9826 11.7889 13.0821 12.7C12.1817 13.6111 11.7319 14.7111 11.7328 16C11.7328 17.2889 12.1826 18.3889 13.0821 19.3C13.9817 20.2111 15.0875 20.6667 16.3995 20.6667ZM16.3995 18C15.8439 18 15.3715 17.8053 14.9821 17.416C14.5928 17.0267 14.3986 16.5547 14.3995 16C14.3995 15.4445 14.5941 14.972 14.9835 14.5827C15.3728 14.1933 15.8448 13.9991 16.3995 14C16.955 14 17.4275 14.1947 17.8168 14.584C18.2061 14.9733 18.4004 15.4453 18.3995 16C18.3995 16.5556 18.2048 17.028 17.8155 17.4173C17.4261 17.8067 16.9541 18.0009 16.3995 18ZM14.9995 26.6667H17.6328L18.0995 23.1333C18.7884 22.9556 19.4275 22.6942 20.0168 22.3493C20.6061 22.0044 21.1448 21.588 21.6328 21.1L24.9328 22.4667L26.2328 20.2L23.3661 18.0333C23.4773 17.7222 23.555 17.3947 23.5995 17.0507C23.6439 16.7067 23.6661 16.3565 23.6661 16C23.6661 15.6445 23.6439 15.2947 23.5995 14.9507C23.555 14.6067 23.4773 14.2787 23.3661 13.9667L26.2328 11.8L24.9328 9.53334L21.6328 10.9333C21.1439 10.4222 20.6053 9.99467 20.0168 9.65067C19.4284 9.30667 18.7893 9.04534 18.0995 8.86667L17.6661 5.33334H15.0328L14.5661 8.86667C13.8773 9.04445 13.2386 9.30578 12.6501 9.65067C12.0617 9.99556 11.5226 10.412 11.0328 10.9L7.73281 9.53334L6.43281 11.8L9.29947 13.9333C9.18836 14.2667 9.11058 14.6 9.06614 14.9333C9.0217 15.2667 8.99947 15.6222 8.99947 16C8.99947 16.3556 9.0217 16.7 9.06614 17.0333C9.11058 17.3667 9.18836 17.7 9.29947 18.0333L6.43281 20.2L7.73281 22.4667L11.0328 21.0667C11.5217 21.5778 12.0608 22.0058 12.6501 22.3507C13.2395 22.6956 13.8781 22.9565 14.5661 23.1333L14.9995 26.6667Z" fill="#6A994E"/>
</svg>
