<svg width="390" height="56" viewBox="0 0 390 56" fill="none" xmlns="http://www.w3.org/2000/svg">
<mask id="path-1-inside-1_163_4787" fill="white">
<path d="M0 0H390V56H0V0Z"/>
</mask>
<path d="M0 0H390V56H0V0Z" fill="white"/>
<path d="M165.064 37.6394H163V17.7768H165.064V26.6262H176.155V17.7768H178.19V37.6394H176.155V28.4848H165.064V37.6394Z" fill="#2E5836"/>
<path d="M181.803 30.926C181.803 26.8203 184.784 23.852 188.854 23.852C192.923 23.852 195.904 26.8203 195.904 30.926C195.904 35.004 192.923 37.9723 188.854 37.9723C184.784 37.9723 181.803 35.004 181.803 30.926ZM183.809 30.8983C183.809 34.0608 185.873 36.2523 188.854 36.2523C191.806 36.2523 193.898 34.0608 193.898 30.8983C193.898 27.7913 191.806 25.572 188.854 25.572C185.873 25.572 183.809 27.7913 183.809 30.8983Z" fill="#2E5836"/>
<path d="M206.318 24.0462V25.7662H205.229C202.678 25.7662 201.044 27.4306 201.044 29.9828V37.6394H199.067V24.2127H200.93L201.073 26.2933C201.618 24.8507 203.079 23.9075 205.028 23.9075C205.458 23.9075 205.831 23.9353 206.318 24.0462Z" fill="#2E5836"/>
<path d="M212.688 37.6394H210.739V25.8217H207.959V24.2127H210.739V19.9683H212.688V24.2127H215.468V25.8217H212.688V37.6394Z" fill="#2E5836"/>
<path d="M227.157 37.9723C221.052 37.9723 217.097 33.8666 217.097 27.5139C217.097 21.2166 221.195 17.0277 227.329 17.0277C232.287 17.0277 235.984 19.8296 236.7 24.1849H232.831C232.115 21.8269 230.023 20.4399 227.243 20.4399C223.374 20.4399 220.938 23.1585 220.938 27.4861C220.938 31.786 223.402 34.5601 227.243 34.5601C230.08 34.5601 232.258 33.1176 232.946 30.8705H236.758C235.955 35.1427 232.115 37.9723 227.157 37.9723Z" fill="#2E5836"/>
<path d="M249.133 23.9353H252.629V37.6394H249.391L249.133 35.8085C248.273 37.1123 246.439 38 244.547 38C241.28 38 239.36 35.8639 239.36 32.5073V23.9353H242.856V31.3144C242.856 33.9221 243.917 34.9762 245.866 34.9762C248.072 34.9762 249.133 33.7279 249.133 31.1202V23.9353Z" fill="#2E5836"/>
<path d="M259.766 37.6394H256.298V17H259.766V37.6394Z" fill="#2E5836"/>
<path d="M268.249 37.6394H264.752V26.7649H262.029V23.9353H264.752V19.6631H268.249V23.9353H271V26.7649H268.249V37.6394Z" fill="#2E5836"/>
<path d="M153.946 15.1496C153.929 14.8642 153.808 14.5948 153.606 14.3926C153.404 14.1905 153.134 14.0696 152.849 14.0529C145.299 13.6154 139.238 15.9109 136.633 20.2102C134.912 23.0526 134.914 26.5046 136.609 29.7977C135.645 30.9459 134.94 32.2892 134.543 33.7353L132.169 31.3538C133.31 28.9722 133.266 26.49 132.024 24.4279C130.098 21.2501 125.654 19.5467 120.136 19.8704C119.851 19.8871 119.581 20.008 119.379 20.2102C119.177 20.4123 119.056 20.6817 119.039 20.9671C118.714 26.4842 120.419 30.9279 123.597 32.853C124.646 33.4937 125.851 33.8328 127.08 33.833C128.273 33.8183 129.448 33.5357 130.517 33.0061L134.163 36.6521V40.8333C134.163 41.1427 134.286 41.4395 134.505 41.6583C134.724 41.8771 135.021 42 135.33 42C135.64 42 135.936 41.8771 136.155 41.6583C136.374 41.4395 136.497 41.1427 136.497 40.8333V36.5325C136.492 34.6764 137.124 32.8747 138.287 31.4281C139.787 32.2124 141.452 32.6321 143.145 32.6532C144.782 32.6585 146.389 32.2113 147.788 31.3611C152.088 28.7593 154.389 22.6982 153.946 15.1496ZM124.801 30.8579C122.563 29.5031 121.297 26.2961 121.328 22.1659C125.459 22.1309 128.666 23.4012 130.021 25.6383C130.728 26.8051 130.844 28.1657 130.38 29.5672L126.819 26.0073C126.599 25.7978 126.305 25.6826 126.001 25.6865C125.696 25.6904 125.406 25.813 125.191 26.0282C124.975 26.2433 124.853 26.534 124.849 26.8382C124.845 27.1425 124.96 27.4362 125.17 27.6568L128.73 31.2167C127.328 31.6804 125.969 31.5652 124.801 30.8579ZM146.579 29.3674C144.624 30.5502 142.327 30.6406 139.993 29.6591L147.824 21.8276C148.034 21.607 148.149 21.3133 148.145 21.009C148.141 20.7048 148.019 20.4141 147.803 20.199C147.588 19.9838 147.298 19.8613 146.993 19.8574C146.689 19.8535 146.395 19.9686 146.175 20.1781L138.342 27.9995C137.356 25.6661 137.445 23.3676 138.634 21.4149C140.667 18.0606 145.489 16.1909 151.663 16.3353C151.803 22.5072 149.936 27.3344 146.579 29.3674Z" fill="url(#paint0_linear_163_4787)"/>
<path d="M390 55H0V57H390V55Z" fill="#AEAEAE" mask="url(#path-1-inside-1_163_4787)"/>
<defs>
<linearGradient id="paint0_linear_163_4787" x1="155.823" y1="11.4468" x2="125.635" y2="44.7018" gradientUnits="userSpaceOnUse">
<stop stop-color="#6A994E"/>
<stop offset="1" stop-color="#2E5836"/>
</linearGradient>
</defs>
</svg>
