<svg width="25" height="24" viewBox="0 0 25 24" fill="none" xmlns="http://www.w3.org/2000/svg">
<path d="M11.8 19.3C11.6167 19.1167 11.5207 18.8833 11.512 18.6C11.5033 18.3167 11.591 18.0833 11.775 17.9L16.675 13H5.5C5.21667 13 4.979 12.904 4.787 12.712C4.595 12.52 4.49934 12.2827 4.5 12C4.5 11.7167 4.596 11.479 4.788 11.287C4.98 11.095 5.21734 10.9993 5.5 11H16.675L11.775 6.09999C11.5917 5.91665 11.504 5.68332 11.512 5.39999C11.52 5.11665 11.616 4.88332 11.8 4.69999C11.9833 4.51665 12.2167 4.42499 12.5 4.42499C12.7833 4.42499 13.0167 4.51665 13.2 4.69999L19.8 11.3C19.9 11.3833 19.971 11.4877 20.013 11.613C20.055 11.7383 20.0757 11.8673 20.075 12C20.075 12.1333 20.0543 12.2583 20.013 12.375C19.9717 12.4917 19.9007 12.6 19.8 12.7L13.2 19.3C13.0167 19.4833 12.7833 19.575 12.5 19.575C12.2167 19.575 11.9833 19.4833 11.8 19.3Z" fill="white"/>
</svg>
