<svg width="24" height="24" viewBox="0 0 24 24" fill="none" xmlns="http://www.w3.org/2000/svg">
<path d="M12 14.975C11.8667 14.975 11.7373 14.95 11.612 14.9C11.4867 14.85 11.3827 14.7833 11.3 14.7L6.7 10.1C6.51667 9.91665 6.425 9.68332 6.425 9.39999C6.425 9.11665 6.51667 8.88332 6.7 8.69999C6.88334 8.51665 7.11667 8.42499 7.4 8.42499C7.68334 8.42499 7.91667 8.51665 8.1 8.69999L12 12.6L15.9 8.69999C16.0833 8.51665 16.3167 8.42499 16.6 8.42499C16.8833 8.42499 17.1167 8.51665 17.3 8.69999C17.4833 8.88332 17.575 9.11665 17.575 9.39999C17.575 9.68332 17.4833 9.91665 17.3 10.1L12.7 14.7C12.6 14.8 12.4917 14.871 12.375 14.913C12.2583 14.955 12.1333 14.9757 12 14.975Z" fill="white"/>
</svg>
