<svg width="12" height="7" viewBox="0 0 12 7" fill="none" xmlns="http://www.w3.org/2000/svg">
<path d="M5.9998 0.025012C5.86647 0.025012 5.73714 0.0500126 5.6118 0.100013C5.48647 0.150013 5.38247 0.216679 5.2998 0.300013L0.699804 4.90001C0.516471 5.08335 0.424805 5.31668 0.424805 5.60001C0.424805 5.88335 0.516471 6.11668 0.699804 6.30001C0.883138 6.48335 1.11647 6.57501 1.3998 6.57501C1.68314 6.57501 1.91647 6.48335 2.0998 6.30001L5.9998 2.40001L9.8998 6.30001C10.0831 6.48335 10.3165 6.57501 10.5998 6.57501C10.8831 6.57501 11.1165 6.48335 11.2998 6.30001C11.4831 6.11668 11.5748 5.88335 11.5748 5.60001C11.5748 5.31668 11.4831 5.08335 11.2998 4.90001L6.6998 0.300013C6.5998 0.200013 6.49147 0.129012 6.3748 0.0870123C6.25814 0.0450125 6.13314 0.0243454 5.9998 0.025012Z" fill="#151515"/>
</svg>
