<svg width="30" height="26" viewBox="0 0 30 26" fill="none" xmlns="http://www.w3.org/2000/svg">
<path d="M24.7506 5.30706C23.6407 6.42353 23.3557 8.02941 23.8807 9.40588L19.5011 13.8718V10.7059C19.5011 9.86471 18.8262 9.17647 18.0013 9.17647H16.4565C16.5015 8.91647 16.5015 8.67177 16.5015 8.41177C16.5015 3.76236 12.8119 3.69923e-06 8.25234 3.69923e-06C6.55331 -0.00162114 4.89528 0.532057 3.50505 1.52803C2.11483 2.52401 1.0603 3.93364 0.485738 5.5641C-0.0888275 7.19456 -0.155374 8.96622 0.295201 10.6367C0.745777 12.3072 1.69147 13.795 3.00291 14.8965V24.4706C3.00291 25.3118 3.67784 26 4.50275 26H18.0013C18.8262 26 19.5011 25.3118 19.5011 24.4706V18.1847L25.9954 11.5624C27.3453 12.0976 28.9201 11.8224 30 10.7059L24.7506 5.30706ZM3.0779 9.17647C3.04791 8.91647 3.00291 8.67177 3.00291 8.41177C3.00291 5.46 5.35766 3.05883 8.25234 3.05883C11.147 3.05883 13.5018 5.46 13.5018 8.41177C13.5018 8.67177 13.4568 8.91647 13.4268 9.17647M16.5015 22.9412H6.00259V12.2353H16.5015V22.9412Z" fill="#62C8FF"/>
</svg>
