<svg width="25" height="24" viewBox="0 0 25 24" fill="none" xmlns="http://www.w3.org/2000/svg">
<path fill-rule="evenodd" clip-rule="evenodd" d="M12.6162 4.13105C12.5472 4.16286 12.2763 4.48633 12.0107 4.85222C11.7451 5.2181 11.2086 5.9976 10.8156 6.5809C10.4278 7.1642 9.84355 8.08157 9.51423 8.62245C9.19022 9.16332 8.71749 10.0118 8.46253 10.5049C8.20758 10.9981 7.88357 11.6821 7.75078 12.0162C7.61268 12.3503 7.44271 12.8434 7.37366 13.1032C7.29398 13.3843 7.22493 13.8032 7.209 14.1108C7.19306 14.4236 7.20369 14.8213 7.24618 15.0918C7.27805 15.341 7.36835 15.7334 7.44271 15.9667C7.51707 16.2 7.68173 16.5924 7.8039 16.8416C7.92606 17.0909 8.1704 17.4833 8.34568 17.7166C8.52096 17.9499 8.80779 18.2681 8.97776 18.4272C9.15304 18.5862 9.43456 18.8143 9.60984 18.9415C9.78512 19.0635 10.1569 19.2756 10.4331 19.4082C10.7093 19.5407 11.1768 19.7157 11.4689 19.79C11.9416 19.9172 12.0904 19.9331 12.8765 19.9331C13.6626 19.9331 13.8113 19.9172 14.284 19.79C14.5762 19.7157 15.0436 19.5407 15.3198 19.4082C15.596 19.2756 15.9678 19.0635 16.1431 18.9415C16.3184 18.8143 16.5999 18.5862 16.7752 18.4272C16.9452 18.2681 17.232 17.9499 17.4073 17.7166C17.5825 17.4833 17.8269 17.0909 17.949 16.8416C18.0712 16.5924 18.2359 16.2 18.3102 15.9667C18.3846 15.7334 18.4749 15.341 18.5068 15.0918C18.5493 14.8213 18.5599 14.4236 18.5439 14.1108C18.528 13.8032 18.459 13.3843 18.3793 13.1032C18.3102 12.8434 18.1403 12.3503 18.0022 12.0162C17.8694 11.6821 17.5454 10.9981 17.2904 10.5049C17.0354 10.0118 16.5627 9.16332 16.2387 8.62245C15.9094 8.08157 15.3251 7.1642 14.9374 6.5809C14.5443 5.9976 14.0078 5.22341 13.7423 4.85752C13.482 4.49163 13.2005 4.16286 13.1208 4.12575C13.0464 4.09393 12.9296 4.06211 12.8658 4.06742C12.7968 4.06742 12.6853 4.09393 12.6162 4.13105ZM12.494 6.14077C12.3028 6.41121 11.9098 6.98921 11.6176 7.42933C11.3255 7.86415 10.8262 8.65426 10.5128 9.17923C10.1941 9.70419 9.72669 10.542 9.47173 11.0352C9.21678 11.5283 8.90871 12.1806 8.79185 12.4775C8.66968 12.7798 8.52627 13.1987 8.47316 13.4055C8.41473 13.6176 8.35099 13.9252 8.33505 14.0842C8.31381 14.2433 8.32974 14.5774 8.36161 14.8266C8.39348 15.0758 8.4944 15.4948 8.57939 15.7546C8.66968 16.0144 8.83434 16.3856 8.94589 16.5765C9.05743 16.7674 9.25396 17.0431 9.38144 17.1969C9.50892 17.3507 9.76387 17.6052 9.95509 17.7696C10.1516 17.934 10.5341 18.1779 10.8315 18.3264C11.1236 18.4749 11.5539 18.6446 11.7876 18.7029C12.1063 18.7824 12.3772 18.809 12.8765 18.809C13.3758 18.809 13.6466 18.7824 13.9653 18.7029C14.1991 18.6446 14.6293 18.4749 14.9214 18.3264C15.2189 18.1779 15.6013 17.934 15.7978 17.7696C15.9891 17.6052 16.244 17.3507 16.3715 17.1969C16.499 17.0431 16.6955 16.7674 16.807 16.5765C16.9186 16.3856 17.0833 16.0144 17.1735 15.7546C17.2585 15.4948 17.3595 15.0758 17.3913 14.8266C17.4232 14.5774 17.4391 14.2433 17.4179 14.0842C17.4019 13.9252 17.3382 13.6176 17.2798 13.4055C17.2267 13.1987 17.0832 12.7798 16.9611 12.4775C16.8442 12.1806 16.5362 11.5283 16.2812 11.0352C16.0262 10.542 15.5535 9.69359 15.2242 9.15271C14.9002 8.61184 14.2575 7.61493 13.7954 6.93088C13.3333 6.24683 12.9296 5.67944 12.8977 5.66883C12.8658 5.65823 12.6852 5.87033 12.494 6.14077Z" fill="#151515" stroke="#151515" stroke-width="0.691276"/>
</svg>
