<svg width="33" height="32" viewBox="0 0 33 32" fill="none" xmlns="http://www.w3.org/2000/svg">
<path d="M18.8334 29.3334H13.8334C13.5 29.3334 13.2111 29.2222 12.9667 29C12.7222 28.7778 12.5778 28.5 12.5334 28.1667L12.1334 25.0667C11.8445 24.9556 11.572 24.8222 11.316 24.6667C11.06 24.5111 10.8102 24.3445 10.5667 24.1667L7.66669 25.3667C7.35558 25.4778 7.04447 25.4889 6.73336 25.4C6.42225 25.3111 6.1778 25.1222 6.00002 24.8334L3.53336 20.5334C3.35558 20.2445 3.30002 19.9334 3.36669 19.6C3.43336 19.2667 3.60002 19 3.86669 18.8L6.36669 16.9C6.34447 16.7445 6.33336 16.5942 6.33336 16.4494V15.5507C6.33336 15.4058 6.34447 15.2556 6.36669 15.1L3.86669 13.2C3.60002 13 3.43336 12.7334 3.36669 12.4C3.30002 12.0667 3.35558 11.7556 3.53336 11.4667L6.00002 7.16669C6.15558 6.85558 6.39425 6.66091 6.71602 6.58269C7.0378 6.50446 7.35469 6.52135 7.66669 6.63335L10.5667 7.83335C10.8111 7.65558 11.0667 7.48891 11.3334 7.33335C11.6 7.1778 11.8667 7.04446 12.1334 6.93335L12.5334 3.83335C12.5778 3.50002 12.7222 3.22224 12.9667 3.00002C13.2111 2.7778 13.5 2.66669 13.8334 2.66669H18.8334C19.1667 2.66669 19.4556 2.7778 19.7 3.00002C19.9445 3.22224 20.0889 3.50002 20.1334 3.83335L20.5334 6.93335C20.8222 7.04446 21.0947 7.1778 21.3507 7.33335C21.6067 7.48891 21.8565 7.65558 22.1 7.83335L25 6.63335C25.3111 6.52224 25.6222 6.51113 25.9334 6.60002C26.2445 6.68891 26.4889 6.8778 26.6667 7.16669L29.1334 11.4667C29.3111 11.7556 29.3667 12.0667 29.3 12.4C29.2334 12.7334 29.0667 13 28.8 13.2L26.3 15.1C26.3222 15.2556 26.3334 15.4058 26.3334 15.5507V16.4494C26.3334 16.5942 26.3111 16.7445 26.2667 16.9L28.7667 18.8C29.0334 19 29.2 19.2667 29.2667 19.6C29.3334 19.9334 29.2778 20.2445 29.1 20.5334L26.6334 24.8C26.4556 25.0889 26.2054 25.2836 25.8827 25.384C25.56 25.4845 25.2436 25.4787 24.9334 25.3667L22.1 24.1667C21.8556 24.3445 21.6 24.5111 21.3334 24.6667C21.0667 24.8222 20.8 24.9556 20.5334 25.0667L20.1334 28.1667C20.0889 28.5 19.9445 28.7778 19.7 29C19.4556 29.2222 19.1667 29.3334 18.8334 29.3334ZM16.4 20.6667C17.6889 20.6667 18.7889 20.2111 19.7 19.3C20.6111 18.3889 21.0667 17.2889 21.0667 16C21.0667 14.7111 20.6111 13.6111 19.7 12.7C18.7889 11.7889 17.6889 11.3334 16.4 11.3334C15.0889 11.3334 13.9831 11.7889 13.0827 12.7C12.1822 13.6111 11.7325 14.7111 11.7334 16C11.7334 17.2889 12.1831 18.3889 13.0827 19.3C13.9822 20.2111 15.088 20.6667 16.4 20.6667ZM16.4 18C15.8445 18 15.372 17.8054 14.9827 17.416C14.5934 17.0267 14.3991 16.5547 14.4 16C14.4 15.4445 14.5947 14.972 14.984 14.5827C15.3734 14.1934 15.8454 13.9991 16.4 14C16.9556 14 17.428 14.1947 17.8174 14.584C18.2067 14.9734 18.4009 15.4454 18.4 16C18.4 16.5556 18.2054 17.028 17.816 17.4174C17.4267 17.8067 16.9547 18.0009 16.4 18ZM15 26.6667H17.6334L18.1 23.1334C18.7889 22.9556 19.428 22.6942 20.0174 22.3494C20.6067 22.0045 21.1454 21.588 21.6334 21.1L24.9334 22.4667L26.2334 20.2L23.3667 18.0334C23.4778 17.7222 23.5556 17.3947 23.6 17.0507C23.6445 16.7067 23.6667 16.3565 23.6667 16C23.6667 15.6445 23.6445 15.2947 23.6 14.9507C23.5556 14.6067 23.4778 14.2787 23.3667 13.9667L26.2334 11.8L24.9334 9.53335L21.6334 10.9334C21.1445 10.4222 20.6058 9.99469 20.0174 9.65069C19.4289 9.30669 18.7898 9.04535 18.1 8.86669L17.6667 5.33335H15.0334L14.5667 8.86669C13.8778 9.04447 13.2391 9.3058 12.6507 9.65069C12.0622 9.99558 11.5231 10.412 11.0334 10.9L7.73336 9.53335L6.43336 11.8L9.30002 13.9334C9.18891 14.2667 9.11113 14.6 9.06669 14.9334C9.02224 15.2667 9.00002 15.6222 9.00002 16C9.00002 16.3556 9.02224 16.7 9.06669 17.0334C9.11113 17.3667 9.18891 17.7 9.30002 18.0334L6.43336 20.2L7.73336 22.4667L11.0334 21.0667C11.5222 21.5778 12.0614 22.0058 12.6507 22.3507C13.24 22.6956 13.8787 22.9565 14.5667 23.1334L15 26.6667Z" fill="#595959"/>
</svg>
