<svg width="25" height="24" viewBox="0 0 25 24" fill="none" xmlns="http://www.w3.org/2000/svg">
<path d="M5.5 19H6.9L15.525 10.375L14.125 8.975L5.5 17.6V19ZM19.8 8.925L15.55 4.725L16.95 3.325C17.3333 2.94167 17.8043 2.75 18.363 2.75C18.9217 2.75 19.3923 2.94167 19.775 3.325L21.175 4.725C21.5583 5.10833 21.7583 5.571 21.775 6.113C21.7917 6.655 21.6083 7.11733 21.225 7.5L19.8 8.925ZM4.5 21C4.21667 21 3.979 20.904 3.787 20.712C3.595 20.52 3.49934 20.2827 3.5 20V17.175C3.5 17.0417 3.525 16.9123 3.575 16.787C3.625 16.6617 3.7 16.5493 3.8 16.45L14.1 6.15L18.35 10.4L8.05 20.7C7.95 20.8 7.83767 20.875 7.713 20.925C7.58834 20.975 7.459 21 7.325 21H4.5ZM14.825 9.675L14.125 8.975L15.525 10.375L14.825 9.675Z" fill="#A7C957"/>
</svg>
