<svg width="279" height="223" viewBox="0 0 279 223" fill="none" xmlns="http://www.w3.org/2000/svg">
<path d="M278.569 9.15589C278.436 6.88266 277.472 4.73731 275.86 3.12716C274.248 1.517 272.101 0.554144 269.825 0.421391C209.644 -3.06311 161.323 15.2189 140.557 49.46C126.838 72.0977 126.861 99.5904 140.371 125.817C132.681 134.962 127.061 145.66 123.896 157.178L104.979 138.21C114.071 119.243 113.723 99.4743 103.816 83.0506C88.4689 57.7415 53.0418 44.1752 9.05727 46.7537C6.78172 46.8865 4.63418 47.8493 3.02238 49.4595C1.41058 51.0696 0.446737 53.215 0.313848 55.4882C-2.27895 99.4278 11.3129 134.819 36.6479 150.151C45.0084 155.253 54.6155 157.954 64.4129 157.956C73.9225 157.839 83.2842 155.588 91.8058 151.37L120.873 180.408V213.708C120.873 216.172 121.853 218.536 123.597 220.278C125.342 222.021 127.708 223 130.175 223C132.642 223 135.007 222.021 136.752 220.278C138.496 218.536 139.476 216.172 139.476 213.708V179.455C139.435 164.673 144.47 150.324 153.742 138.803C165.706 145.048 178.974 148.391 192.471 148.559C205.521 148.601 218.329 145.04 229.48 138.268C263.756 117.547 282.103 69.2752 278.569 9.15589ZM46.2401 134.261C28.4044 123.471 18.3123 97.9295 18.5564 65.0357C51.4838 64.757 77.0513 74.8737 87.8527 92.6911C93.4917 101.983 94.4103 112.82 90.7129 123.982L62.3317 95.6297C60.5731 93.9607 58.2315 93.0439 55.806 93.075C53.3805 93.106 51.0631 94.0823 49.3479 95.7958C47.6327 97.5092 46.6554 99.8242 46.6243 102.247C46.5933 104.67 47.5109 107.01 49.1817 108.766L77.5629 137.119C66.3895 140.812 55.5532 139.895 46.2401 134.261ZM219.841 122.391C204.261 131.81 185.949 132.531 167.346 124.714L229.771 62.3411C231.441 60.5843 232.359 58.245 232.328 55.822C232.297 53.399 231.32 51.084 229.604 49.3705C227.889 47.6571 225.572 46.6808 223.146 46.6497C220.721 46.6187 218.379 47.5354 216.621 49.2045L154.184 111.496C146.324 92.9118 147.034 74.6065 156.509 59.054C172.717 32.3395 211.156 17.449 260.372 18.5989C261.489 67.7537 246.606 106.199 219.841 122.391Z" fill="url(#paint0_linear_27_1312)"/>
<defs>
<linearGradient id="paint0_linear_27_1312" x1="293.532" y1="-20.3347" x2="53.1253" y2="244.732" gradientUnits="userSpaceOnUse">
<stop stop-color="#6A994E"/>
<stop offset="1" stop-color="#2E5836"/>
</linearGradient>
</defs>
</svg>
