<svg width="27" height="28" viewBox="0 0 27 28" fill="none" xmlns="http://www.w3.org/2000/svg">
<path d="M15.8328 27.3334H10.8328C10.4995 27.3334 10.2106 27.2222 9.96614 27C9.7217 26.7778 9.57725 26.5 9.53281 26.1667L9.13281 23.0667C8.84392 22.9556 8.57147 22.8222 8.31547 22.6667C8.05947 22.5111 7.8097 22.3445 7.56614 22.1667L4.66614 23.3667C4.35503 23.4778 4.04392 23.4889 3.73281 23.4C3.4217 23.3111 3.17725 23.1222 2.99947 22.8334L0.532807 18.5334C0.355029 18.2445 0.299473 17.9334 0.36614 17.6C0.432807 17.2667 0.599473 17 0.86614 16.8L3.36614 14.9C3.34392 14.7445 3.33281 14.5942 3.33281 14.4494V13.5507C3.33281 13.4058 3.34392 13.2556 3.36614 13.1L0.86614 11.2C0.599473 11 0.432807 10.7334 0.36614 10.4C0.299473 10.0667 0.355029 9.75558 0.532807 9.46669L2.99947 5.16669C3.15503 4.85558 3.3937 4.66091 3.71547 4.58269C4.03725 4.50446 4.35414 4.52135 4.66614 4.63335L7.56614 5.83335C7.81058 5.65558 8.06614 5.48891 8.33281 5.33335C8.59947 5.1778 8.86614 5.04446 9.13281 4.93335L9.53281 1.83335C9.57725 1.50002 9.7217 1.22224 9.96614 1.00002C10.2106 0.777798 10.4995 0.666687 10.8328 0.666687H15.8328C16.1661 0.666687 16.455 0.777798 16.6995 1.00002C16.9439 1.22224 17.0884 1.50002 17.1328 1.83335L17.5328 4.93335C17.8217 5.04446 18.0941 5.1778 18.3501 5.33335C18.6061 5.48891 18.8559 5.65558 19.0995 5.83335L21.9995 4.63335C22.3106 4.52224 22.6217 4.51113 22.9328 4.60002C23.2439 4.68891 23.4884 4.8778 23.6661 5.16669L26.1328 9.46669C26.3106 9.75558 26.3661 10.0667 26.2995 10.4C26.2328 10.7334 26.0661 11 25.7995 11.2L23.2995 13.1C23.3217 13.2556 23.3328 13.4058 23.3328 13.5507V14.4494C23.3328 14.5942 23.3106 14.7445 23.2661 14.9L25.7661 16.8C26.0328 17 26.1995 17.2667 26.2661 17.6C26.3328 17.9334 26.2773 18.2445 26.0995 18.5334L23.6328 22.8C23.455 23.0889 23.2048 23.2836 22.8821 23.384C22.5595 23.4845 22.243 23.4787 21.9328 23.3667L19.0995 22.1667C18.855 22.3445 18.5995 22.5111 18.3328 22.6667C18.0661 22.8222 17.7995 22.9556 17.5328 23.0667L17.1328 26.1667C17.0884 26.5 16.9439 26.7778 16.6995 27C16.455 27.2222 16.1661 27.3334 15.8328 27.3334ZM13.3995 18.6667C14.6884 18.6667 15.7884 18.2111 16.6995 17.3C17.6106 16.3889 18.0661 15.2889 18.0661 14C18.0661 12.7111 17.6106 11.6111 16.6995 10.7C15.7884 9.78891 14.6884 9.33335 13.3995 9.33335C12.0884 9.33335 10.9826 9.78891 10.0821 10.7C9.1817 11.6111 8.73192 12.7111 8.73281 14C8.73281 15.2889 9.18258 16.3889 10.0821 17.3C10.9817 18.2111 12.0875 18.6667 13.3995 18.6667ZM13.3995 16C12.8439 16 12.3715 15.8054 11.9821 15.416C11.5928 15.0267 11.3986 14.5547 11.3995 14C11.3995 13.4445 11.5941 12.972 11.9835 12.5827C12.3728 12.1934 12.8448 11.9991 13.3995 12C13.955 12 14.4275 12.1947 14.8168 12.584C15.2061 12.9734 15.4004 13.4454 15.3995 14C15.3995 14.5556 15.2048 15.028 14.8155 15.4174C14.4261 15.8067 13.9541 16.0009 13.3995 16ZM11.9995 24.6667H14.6328L15.0995 21.1334C15.7884 20.9556 16.4275 20.6942 17.0168 20.3494C17.6061 20.0045 18.1448 19.588 18.6328 19.1L21.9328 20.4667L23.2328 18.2L20.3661 16.0334C20.4773 15.7222 20.555 15.3947 20.5995 15.0507C20.6439 14.7067 20.6661 14.3565 20.6661 14C20.6661 13.6445 20.6439 13.2947 20.5995 12.9507C20.555 12.6067 20.4773 12.2787 20.3661 11.9667L23.2328 9.80002L21.9328 7.53335L18.6328 8.93335C18.1439 8.42224 17.6053 7.99469 17.0168 7.65069C16.4284 7.30669 15.7893 7.04535 15.0995 6.86669L14.6661 3.33335H12.0328L11.5661 6.86669C10.8773 7.04447 10.2386 7.3058 9.65014 7.65069C9.0617 7.99558 8.52258 8.41202 8.03281 8.90002L4.73281 7.53335L3.43281 9.80002L6.29947 11.9334C6.18836 12.2667 6.11058 12.6 6.06614 12.9334C6.0217 13.2667 5.99947 13.6222 5.99947 14C5.99947 14.3556 6.0217 14.7 6.06614 15.0334C6.11058 15.3667 6.18836 15.7 6.29947 16.0334L3.43281 18.2L4.73281 20.4667L8.03281 19.0667C8.5217 19.5778 9.06081 20.0058 9.65014 20.3507C10.2395 20.6956 10.8781 20.9565 11.5661 21.1334L11.9995 24.6667Z" fill="#6A994E"/>
</svg>
