<svg width="12" height="10" viewBox="0 0 12 10" fill="none" xmlns="http://www.w3.org/2000/svg">
<path d="M3.575 6.88752L9.475 0.987524C9.65833 0.804191 9.89167 0.712524 10.175 0.712524C10.4583 0.712524 10.6917 0.804191 10.875 0.987524C11.0583 1.17086 11.15 1.40419 11.15 1.68752C11.15 1.97086 11.0583 2.20419 10.875 2.38752L4.275 8.98752C4.075 9.18752 3.84167 9.28752 3.575 9.28752C3.30833 9.28752 3.075 9.18752 2.875 8.98752L0.275 6.38752C0.0916663 6.20419 0 5.97086 0 5.68752C0 5.40419 0.0916663 5.17086 0.275 4.98752C0.458333 4.80419 0.691667 4.71252 0.975 4.71252C1.25833 4.71252 1.49167 4.80419 1.675 4.98752L3.575 6.88752Z" fill="white"/>
</svg>
