<svg width="26" height="26" viewBox="0 0 26 26" fill="none" xmlns="http://www.w3.org/2000/svg">
<path d="M12.3728 1.13162C12.4399 1.09008 12.5421 1.04215 12.5997 1.02298H12.5965C12.654 1.007 12.801 0.997417 12.9256 1.00061C13.0885 1.007 13.2004 1.03257 13.3314 1.09647C13.4496 1.15079 13.555 1.23387 13.6253 1.32014C13.6829 1.39363 13.7532 1.49588 13.7819 1.5502C13.8075 1.60452 13.8458 1.73873 13.8682 1.85376C13.8906 1.98796 13.9001 2.34584 13.8938 2.86028C13.8842 3.61437 13.8778 3.66869 13.8107 3.81887C13.7691 3.90834 13.6861 4.03935 13.6253 4.11603C13.5519 4.2087 13.4496 4.28219 13.2994 4.34929C13.1077 4.43876 13.0598 4.44834 12.8457 4.43556C12.6891 4.42598 12.5549 4.39722 12.4623 4.35249C12.3824 4.31734 12.2673 4.23746 12.2066 4.17674C12.1459 4.11923 12.0501 3.99142 11.9031 3.72301V2.73247C11.9031 1.84098 11.9095 1.72914 11.9606 1.61411C11.9957 1.54381 12.0724 1.42239 12.1363 1.34571C12.2034 1.26902 12.3089 1.16996 12.3728 1.13162Z" fill="#151515"/>
<path d="M4.56027 4.40042C4.62737 4.35249 4.7424 4.29178 4.8127 4.26621C4.89577 4.23426 5.02039 4.22148 5.16418 4.22787C5.32714 4.23426 5.43578 4.25982 5.56359 4.32373C5.6978 4.39083 5.89271 4.56338 6.38159 5.05865C6.80657 5.48682 7.04621 5.75203 7.09414 5.84789C7.12929 5.92777 7.17083 6.07156 7.18042 6.16742C7.1932 6.29204 7.18361 6.40068 7.14207 6.53488C7.10693 6.6531 7.03663 6.78731 6.95355 6.88636C6.88006 6.97583 6.76503 7.08447 6.69473 7.1324C6.61804 7.18353 6.49023 7.23145 6.36242 7.25063C6.21224 7.27619 6.1004 7.27619 5.96301 7.25063C5.85756 7.23145 5.72016 7.18992 5.65945 7.15796C5.59874 7.12921 5.26643 6.81287 4.92453 6.45819C4.54429 6.06517 4.2695 5.75522 4.22476 5.66256C4.16086 5.54433 4.14488 5.45806 4.14168 5.25676C4.13849 5.08102 4.15446 4.9564 4.19281 4.85734C4.22157 4.77746 4.28867 4.66243 4.33979 4.60172C4.39411 4.54101 4.48997 4.45154 4.56027 4.40042Z" fill="#151515"/>
<path d="M20.262 4.35249C20.1118 4.4132 19.9936 4.51225 19.4632 5.03628C19.0478 5.44528 18.8081 5.7041 18.7442 5.81913C18.6579 5.9757 18.6484 6.01724 18.6484 6.29523C18.6484 6.52849 18.6611 6.62435 18.7091 6.71062C18.741 6.77133 18.8337 6.88956 18.9168 6.97583C19.0126 7.07488 19.1181 7.14518 19.2235 7.18033C19.3194 7.21548 19.4791 7.23785 19.6229 7.23785C19.7731 7.23785 19.9297 7.21548 20.0383 7.17713C20.1949 7.12281 20.278 7.05252 20.8435 6.49014C21.3164 6.01724 21.489 5.82552 21.5433 5.7041C21.6008 5.58268 21.6168 5.48043 21.62 5.28871C21.6232 5.07143 21.6104 5.00752 21.5369 4.85734C21.489 4.76149 21.3963 4.62728 21.3292 4.56338C21.2589 4.49947 21.1247 4.41 21.0289 4.36527C20.8947 4.30136 20.802 4.28219 20.6454 4.28538C20.5112 4.28538 20.3738 4.31095 20.262 4.35249Z" fill="#151515"/>
<path fill-rule="evenodd" clip-rule="evenodd" d="M12.1938 5.66895C12.3344 5.65617 12.4527 5.64339 12.4591 5.64019C12.4654 5.6338 12.7307 5.637 13.0502 5.64339C13.4432 5.64978 13.7532 5.67534 13.9992 5.71688C14.2005 5.75203 14.5328 5.82552 14.7341 5.87665C14.9354 5.93097 15.2454 6.02363 15.4211 6.08754C15.5968 6.14825 15.9355 6.29843 16.172 6.41985C16.4085 6.54127 16.6832 6.68825 16.7791 6.74577C16.875 6.80648 17.121 6.97903 17.3223 7.1292C17.5332 7.28577 17.8687 7.58613 18.1115 7.83217C18.3416 8.06862 18.6292 8.39135 18.7474 8.54792C18.8656 8.70449 19.0574 8.99207 19.1756 9.18698C19.2938 9.38189 19.46 9.68225 19.543 9.85799C19.6229 10.0337 19.7412 10.3085 19.7987 10.4651C19.8594 10.6217 19.952 10.9188 20.0032 11.1201C20.0575 11.3214 20.131 11.6761 20.1661 11.903C20.2205 12.2321 20.2332 12.459 20.23 13.015C20.23 13.555 20.2141 13.7978 20.1661 14.1173C20.1278 14.341 20.0639 14.6669 20.0191 14.8427C19.9744 15.0184 19.8817 15.3124 19.8146 15.4977C19.7507 15.683 19.6229 15.9834 19.5367 16.1687C19.4504 16.354 19.297 16.6416 19.1948 16.8078C19.0925 16.9739 18.9072 17.2487 18.7826 17.4149C18.6548 17.581 18.38 17.8974 18.1691 18.1147C17.9582 18.3319 17.677 18.5972 17.546 18.7058C17.415 18.8112 17.1338 19.0157 16.9229 19.1563C16.712 19.2969 16.3893 19.4886 16.204 19.5813C16.0186 19.6708 15.6799 19.8114 15.4531 19.8912C15.223 19.9743 14.8779 20.0798 14.6862 20.1309C14.4913 20.1788 14.2133 20.2363 14.0631 20.2555C13.9772 20.2665 13.8694 20.2816 13.7702 20.2956C13.6959 20.306 13.6262 20.3158 13.5742 20.3226C13.456 20.3418 13.3505 20.3482 13.3346 20.3418C13.3218 20.3322 13.2259 20.3386 13.1205 20.3514C13.015 20.3673 12.769 20.3673 12.5773 20.3546C12.3824 20.3386 12.0884 20.313 11.9222 20.2939C11.7561 20.2715 11.4174 20.2076 11.1714 20.1469C10.9253 20.0862 10.5802 19.9871 10.4045 19.9232C10.2287 19.8593 9.92518 19.7347 9.73346 19.6452C9.53855 19.5589 9.30849 19.4407 9.22222 19.3864C9.13275 19.3321 9.05606 19.2778 9.04647 19.2682C9.03689 19.2586 8.99535 19.2362 8.95061 19.2138C8.90588 19.1947 8.71097 19.0669 8.51925 18.9263C8.30197 18.7665 7.98563 18.4885 7.68847 18.1913C7.40728 17.9102 7.10373 17.5683 6.95355 17.3638C6.81296 17.172 6.61485 16.8653 6.5094 16.68C6.40396 16.4946 6.26656 16.2294 6.19946 16.0888C6.13236 15.9482 6.02691 15.6894 5.9662 15.5137C5.9023 15.3379 5.80324 14.9992 5.74253 14.7628C5.68182 14.5263 5.63709 14.3218 5.64667 14.3091C5.65306 14.2931 5.64667 14.2356 5.6275 14.1812C5.61152 14.1237 5.58596 13.9767 5.57318 13.8521C5.56359 13.7275 5.55401 13.3345 5.55401 12.9734C5.55401 12.6123 5.56679 12.2257 5.57637 12.1107C5.58916 11.9957 5.60513 11.8966 5.61152 11.887C5.61791 11.8774 5.63389 11.8007 5.64348 11.7113C5.65306 11.625 5.6978 11.4077 5.73933 11.232C5.78087 11.0562 5.87673 10.7463 5.94703 10.545C6.01733 10.3437 6.14514 10.0337 6.23141 9.85799C6.31449 9.68225 6.45828 9.40746 6.55094 9.25089C6.6468 9.09432 6.82254 8.82591 6.94396 8.65976C7.06858 8.4936 7.26989 8.24117 7.3945 8.10377C7.52231 7.96318 7.79711 7.69477 8.008 7.50306C8.21889 7.30814 8.56398 7.03654 8.77487 6.89595C8.98576 6.75535 9.35322 6.54446 9.58967 6.42624C9.82613 6.30801 10.1648 6.15783 10.3406 6.09393C10.5163 6.03002 10.855 5.92777 11.0915 5.86706C11.3279 5.80635 11.5867 5.74883 11.6666 5.73605C11.7465 5.72327 11.8392 5.7073 11.8743 5.69771C11.9095 5.69132 12.0533 5.67854 12.1938 5.66895ZM12.8765 18.3189C15.8139 18.3189 18.1951 15.9377 18.1951 13.0003C18.1951 10.0629 15.8139 7.68162 12.8765 7.68162C9.93906 7.68162 7.55782 10.0629 7.55782 13.0003C7.55782 15.9377 9.93906 18.3189 12.8765 18.3189Z" fill="#151515"/>
<path d="M1.72923 12.0148C1.63337 12.0276 1.49597 12.0659 1.42568 12.1011C1.35538 12.1394 1.24354 12.2225 1.17644 12.2928C1.10614 12.3599 1.02307 12.4686 0.991114 12.5357C0.959161 12.5996 0.914427 12.7306 0.895255 12.8232C0.869692 12.9479 0.869692 13.0373 0.89845 13.1811C0.917622 13.2866 0.968747 13.4303 1.01029 13.5006C1.04863 13.5709 1.1381 13.6764 1.2052 13.7371C1.2755 13.7978 1.40011 13.8809 1.48958 13.9224C1.64615 13.9927 1.67171 13.9959 2.60794 13.9959C3.50901 13.9959 3.57611 13.9895 3.71032 13.9288C3.7902 13.8905 3.90843 13.817 3.97233 13.7627C4.03624 13.7051 4.12571 13.6093 4.17364 13.5486C4.21837 13.4879 4.27269 13.3792 4.29186 13.3089C4.31103 13.2386 4.33021 13.1108 4.3334 13.0213C4.33979 12.9351 4.32701 12.8041 4.30784 12.7338C4.28867 12.6635 4.21837 12.5261 4.15446 12.4302C4.07778 12.3216 3.96914 12.2161 3.86369 12.149C3.74227 12.0755 3.63043 12.0372 3.47067 12.0148C3.34605 11.9988 2.94344 11.9861 2.57598 11.9893C2.20533 11.9893 1.82509 12.002 1.72923 12.0148Z" fill="#151515"/>
<path d="M22.0098 12.0915C22.0769 12.0628 22.2015 12.0276 22.291 12.0148C22.3773 11.9988 22.8246 11.9925 23.2816 11.9957C24.0101 12.0052 24.1315 12.0116 24.2689 12.0659C24.3552 12.0979 24.4958 12.1938 24.5788 12.28C24.6651 12.3631 24.7674 12.4973 24.8089 12.5836C24.8664 12.7082 24.8792 12.7817 24.876 13.0054C24.8728 13.1779 24.8536 13.3217 24.8185 13.3984C24.7897 13.4623 24.7067 13.5837 24.63 13.6668C24.5533 13.7531 24.4159 13.8521 24.1123 13.9959H23.1857C22.3869 13.9959 22.2367 13.9895 22.0993 13.9416C21.9906 13.9032 21.8788 13.8234 21.7446 13.6924C21.5816 13.5326 21.5369 13.4687 21.4922 13.3089C21.4538 13.1779 21.4411 13.0533 21.4506 12.9095C21.4602 12.7881 21.4954 12.6443 21.5369 12.5676C21.5721 12.4909 21.6679 12.3663 21.7478 12.2864C21.8277 12.2065 21.9459 12.1203 22.0098 12.0915Z" fill="#151515"/>
<path d="M5.99496 18.7282C5.92466 18.7377 5.79685 18.7793 5.70738 18.824C5.59235 18.8783 5.37507 19.0764 4.93092 19.5238C4.45163 20.0063 4.29186 20.1852 4.22796 20.3226C4.16405 20.46 4.14488 20.5463 4.14488 20.722C4.14488 20.885 4.16725 20.9904 4.21837 21.1055C4.25671 21.1949 4.34938 21.3259 4.42287 21.4026C4.49636 21.4761 4.64335 21.5752 4.74879 21.6231C4.89258 21.687 4.98844 21.7094 5.13223 21.7094C5.25365 21.7094 5.39424 21.6806 5.51566 21.6327C5.68501 21.5688 5.77768 21.4921 6.32408 20.9489C6.75225 20.5271 6.96953 20.2875 7.02385 20.1788C7.08136 20.0702 7.11332 19.9488 7.1229 19.7954C7.13249 19.6324 7.1229 19.5238 7.08136 19.396C7.04302 19.2809 6.96953 19.1659 6.87686 19.0637C6.79698 18.9806 6.65639 18.8719 6.57011 18.8272C6.48065 18.7825 6.34644 18.7377 6.26656 18.7282C6.18668 18.7154 6.06206 18.7154 5.99496 18.7282Z" fill="#151515"/>
<path d="M19.198 18.8016C19.2651 18.7729 19.3897 18.7409 19.4727 18.7282C19.559 18.7186 19.6932 18.7154 19.7763 18.7282C19.8594 18.7409 19.9968 18.7857 20.0862 18.8304C20.1853 18.8815 20.361 19.0317 20.5496 19.2298C20.6654 19.3501 20.8295 19.5249 20.9723 19.677L20.9733 19.678C21.0348 19.7436 21.0927 19.8052 21.1407 19.8561C21.3005 20.0286 21.4634 20.2363 21.5082 20.3194C21.5753 20.444 21.588 20.5079 21.588 20.754C21.588 21 21.5753 21.0639 21.505 21.2013C21.457 21.2908 21.3644 21.4122 21.2973 21.4761C21.227 21.5368 21.0896 21.6199 20.9873 21.6583C20.8787 21.6998 20.7317 21.7285 20.6199 21.7285C20.5208 21.7285 20.3642 21.7062 20.278 21.6774C20.1885 21.6487 20.0735 21.5912 20.0223 21.5528C19.968 21.5145 19.6709 21.2269 19.3577 20.9105C18.9295 20.4792 18.7698 20.2939 18.7059 20.1628C18.6356 20.0191 18.6196 19.9424 18.6196 19.7315C18.6196 19.5302 18.6356 19.4407 18.6995 19.3033C18.7442 19.2043 18.8401 19.0732 18.9264 18.9934C19.0126 18.9167 19.134 18.8304 19.198 18.8016Z" fill="#151515"/>
<path d="M12.9767 21.5592C12.916 21.5528 12.801 21.5592 12.7211 21.5688C12.6412 21.5816 12.5134 21.6263 12.4335 21.6646C12.3536 21.7062 12.2322 21.7956 12.1651 21.8691C12.098 21.9426 12.0117 22.0641 11.9734 22.1439C11.9095 22.2813 11.9063 22.3389 11.9063 23.2783C11.9063 24.2241 11.9095 24.2752 11.9734 24.4126C12.0117 24.4925 12.114 24.6267 12.197 24.7098C12.2833 24.796 12.4175 24.8951 12.4974 24.9334C12.606 24.9846 12.6987 25.0005 12.8808 25.0005C13.0534 25.0005 13.162 24.9814 13.2643 24.9366C13.3442 24.8983 13.4784 24.8056 13.5678 24.7257C13.6669 24.6395 13.7595 24.5149 13.8075 24.4094C13.881 24.2433 13.8842 24.2081 13.8969 23.4061C13.9065 22.8565 13.8969 22.5114 13.8714 22.3836C13.8522 22.2781 13.7883 22.1152 13.734 22.0193C13.6765 21.9267 13.5742 21.8116 13.5039 21.7605C13.4336 21.7126 13.3122 21.6519 13.2323 21.6231C13.1524 21.5975 13.0374 21.5688 12.9767 21.5592Z" fill="#151515"/>
<path d="M12.3728 1.13162C12.4399 1.09008 12.5421 1.04215 12.5997 1.02298H12.5965C12.654 1.007 12.801 0.997417 12.9256 1.00061C13.0885 1.007 13.2004 1.03257 13.3314 1.09647C13.4496 1.15079 13.555 1.23387 13.6253 1.32014C13.6829 1.39363 13.7532 1.49588 13.7819 1.5502C13.8075 1.60452 13.8458 1.73873 13.8682 1.85376C13.8906 1.98796 13.9001 2.34584 13.8938 2.86028C13.8842 3.61437 13.8778 3.66869 13.8107 3.81887C13.7691 3.90834 13.6861 4.03935 13.6253 4.11603C13.5519 4.2087 13.4496 4.28219 13.2994 4.34929C13.1077 4.43876 13.0598 4.44834 12.8457 4.43556C12.6891 4.42598 12.5549 4.39722 12.4623 4.35249C12.3824 4.31734 12.2673 4.23746 12.2066 4.17674C12.1459 4.11923 12.0501 3.99142 11.9031 3.72301V2.73247C11.9031 1.84098 11.9095 1.72914 11.9606 1.61411C11.9957 1.54381 12.0724 1.42239 12.1363 1.34571C12.2034 1.26902 12.3089 1.16996 12.3728 1.13162Z" stroke="#151515" stroke-width="0.5"/>
<path d="M4.56027 4.40042C4.62737 4.35249 4.7424 4.29178 4.8127 4.26621C4.89577 4.23426 5.02039 4.22148 5.16418 4.22787C5.32714 4.23426 5.43578 4.25982 5.56359 4.32373C5.6978 4.39083 5.89271 4.56338 6.38159 5.05865C6.80657 5.48682 7.04621 5.75203 7.09414 5.84789C7.12929 5.92777 7.17083 6.07156 7.18042 6.16742C7.1932 6.29204 7.18361 6.40068 7.14207 6.53488C7.10693 6.6531 7.03663 6.78731 6.95355 6.88636C6.88006 6.97583 6.76503 7.08447 6.69473 7.1324C6.61804 7.18353 6.49023 7.23145 6.36242 7.25063C6.21224 7.27619 6.1004 7.27619 5.96301 7.25063C5.85756 7.23145 5.72016 7.18992 5.65945 7.15796C5.59874 7.12921 5.26643 6.81287 4.92453 6.45819C4.54429 6.06517 4.2695 5.75522 4.22476 5.66256C4.16086 5.54433 4.14488 5.45806 4.14168 5.25676C4.13849 5.08102 4.15446 4.9564 4.19281 4.85734C4.22157 4.77746 4.28867 4.66243 4.33979 4.60172C4.39411 4.54101 4.48997 4.45154 4.56027 4.40042Z" stroke="#151515" stroke-width="0.5"/>
<path d="M20.262 4.35249C20.1118 4.4132 19.9936 4.51225 19.4632 5.03628C19.0478 5.44528 18.8081 5.7041 18.7442 5.81913C18.6579 5.9757 18.6484 6.01724 18.6484 6.29523C18.6484 6.52849 18.6611 6.62435 18.7091 6.71062C18.741 6.77133 18.8337 6.88956 18.9168 6.97583C19.0126 7.07488 19.1181 7.14518 19.2235 7.18033C19.3194 7.21548 19.4791 7.23785 19.6229 7.23785C19.7731 7.23785 19.9297 7.21548 20.0383 7.17713C20.1949 7.12281 20.278 7.05252 20.8435 6.49014C21.3164 6.01724 21.489 5.82552 21.5433 5.7041C21.6008 5.58268 21.6168 5.48043 21.62 5.28871C21.6232 5.07143 21.6104 5.00752 21.5369 4.85734C21.489 4.76149 21.3963 4.62728 21.3292 4.56338C21.2589 4.49947 21.1247 4.41 21.0289 4.36527C20.8947 4.30136 20.802 4.28219 20.6454 4.28538C20.5112 4.28538 20.3738 4.31095 20.262 4.35249Z" stroke="#151515" stroke-width="0.5"/>
<path fill-rule="evenodd" clip-rule="evenodd" d="M12.1938 5.66895C12.3344 5.65617 12.4527 5.64339 12.4591 5.64019C12.4654 5.6338 12.7307 5.637 13.0502 5.64339C13.4432 5.64978 13.7532 5.67534 13.9992 5.71688C14.2005 5.75203 14.5328 5.82552 14.7341 5.87665C14.9354 5.93097 15.2454 6.02363 15.4211 6.08754C15.5968 6.14825 15.9355 6.29843 16.172 6.41985C16.4085 6.54127 16.6832 6.68825 16.7791 6.74577C16.875 6.80648 17.121 6.97903 17.3223 7.1292C17.5332 7.28577 17.8687 7.58613 18.1115 7.83217C18.3416 8.06862 18.6292 8.39135 18.7474 8.54792C18.8656 8.70449 19.0574 8.99207 19.1756 9.18698C19.2938 9.38189 19.46 9.68225 19.543 9.85799C19.6229 10.0337 19.7412 10.3085 19.7987 10.4651C19.8594 10.6217 19.952 10.9188 20.0032 11.1201C20.0575 11.3214 20.131 11.6761 20.1661 11.903C20.2205 12.2321 20.2332 12.459 20.23 13.015C20.23 13.555 20.2141 13.7978 20.1661 14.1173C20.1278 14.341 20.0639 14.6669 20.0191 14.8427C19.9744 15.0184 19.8817 15.3124 19.8146 15.4977C19.7507 15.683 19.6229 15.9834 19.5367 16.1687C19.4504 16.354 19.297 16.6416 19.1948 16.8078C19.0925 16.9739 18.9072 17.2487 18.7826 17.4149C18.6548 17.581 18.38 17.8974 18.1691 18.1147C17.9582 18.3319 17.677 18.5972 17.546 18.7058C17.415 18.8112 17.1338 19.0157 16.9229 19.1563C16.712 19.2969 16.3893 19.4886 16.204 19.5813C16.0186 19.6708 15.6799 19.8114 15.4531 19.8912C15.223 19.9743 14.8779 20.0798 14.6862 20.1309C14.4913 20.1788 14.2133 20.2363 14.0631 20.2555C13.9772 20.2665 13.8694 20.2816 13.7702 20.2956C13.6959 20.306 13.6262 20.3158 13.5742 20.3226C13.456 20.3418 13.3505 20.3482 13.3346 20.3418C13.3218 20.3322 13.2259 20.3386 13.1205 20.3514C13.015 20.3673 12.769 20.3673 12.5773 20.3546C12.3824 20.3386 12.0884 20.313 11.9222 20.2939C11.7561 20.2715 11.4174 20.2076 11.1714 20.1469C10.9253 20.0862 10.5802 19.9871 10.4045 19.9232C10.2287 19.8593 9.92518 19.7347 9.73346 19.6452C9.53855 19.5589 9.30849 19.4407 9.22222 19.3864C9.13275 19.3321 9.05606 19.2778 9.04647 19.2682C9.03689 19.2586 8.99535 19.2362 8.95061 19.2138C8.90588 19.1947 8.71097 19.0669 8.51925 18.9263C8.30197 18.7665 7.98563 18.4885 7.68847 18.1913C7.40728 17.9102 7.10373 17.5683 6.95355 17.3638C6.81296 17.172 6.61485 16.8653 6.5094 16.68C6.40396 16.4946 6.26656 16.2294 6.19946 16.0888C6.13236 15.9482 6.02691 15.6894 5.9662 15.5137C5.9023 15.3379 5.80324 14.9992 5.74253 14.7628C5.68182 14.5263 5.63709 14.3218 5.64667 14.3091C5.65306 14.2931 5.64667 14.2356 5.6275 14.1812C5.61152 14.1237 5.58596 13.9767 5.57318 13.8521C5.56359 13.7275 5.55401 13.3345 5.55401 12.9734C5.55401 12.6123 5.56679 12.2257 5.57637 12.1107C5.58916 11.9957 5.60513 11.8966 5.61152 11.887C5.61791 11.8774 5.63389 11.8007 5.64348 11.7113C5.65306 11.625 5.6978 11.4077 5.73933 11.232C5.78087 11.0562 5.87673 10.7463 5.94703 10.545C6.01733 10.3437 6.14514 10.0337 6.23141 9.85799C6.31449 9.68225 6.45828 9.40746 6.55094 9.25089C6.6468 9.09432 6.82254 8.82591 6.94396 8.65976C7.06858 8.4936 7.26989 8.24117 7.3945 8.10377C7.52231 7.96318 7.79711 7.69477 8.008 7.50306C8.21889 7.30814 8.56398 7.03654 8.77487 6.89595C8.98576 6.75535 9.35322 6.54446 9.58967 6.42624C9.82613 6.30801 10.1648 6.15783 10.3406 6.09393C10.5163 6.03002 10.855 5.92777 11.0915 5.86706C11.3279 5.80635 11.5867 5.74883 11.6666 5.73605C11.7465 5.72327 11.8392 5.7073 11.8743 5.69771C11.9095 5.69132 12.0533 5.67854 12.1938 5.66895ZM12.8765 18.3189C15.8139 18.3189 18.1951 15.9377 18.1951 13.0003C18.1951 10.0629 15.8139 7.68162 12.8765 7.68162C9.93906 7.68162 7.55782 10.0629 7.55782 13.0003C7.55782 15.9377 9.93906 18.3189 12.8765 18.3189Z" stroke="#151515" stroke-width="0.5"/>
<path d="M1.72923 12.0148C1.63337 12.0276 1.49597 12.0659 1.42568 12.1011C1.35538 12.1394 1.24354 12.2225 1.17644 12.2928C1.10614 12.3599 1.02307 12.4686 0.991114 12.5357C0.959161 12.5996 0.914427 12.7306 0.895255 12.8232C0.869692 12.9479 0.869692 13.0373 0.89845 13.1811C0.917622 13.2866 0.968747 13.4303 1.01029 13.5006C1.04863 13.5709 1.1381 13.6764 1.2052 13.7371C1.2755 13.7978 1.40011 13.8809 1.48958 13.9224C1.64615 13.9927 1.67171 13.9959 2.60794 13.9959C3.50901 13.9959 3.57611 13.9895 3.71032 13.9288C3.7902 13.8905 3.90843 13.817 3.97233 13.7627C4.03624 13.7051 4.12571 13.6093 4.17364 13.5486C4.21837 13.4879 4.27269 13.3792 4.29186 13.3089C4.31103 13.2386 4.33021 13.1108 4.3334 13.0213C4.33979 12.9351 4.32701 12.8041 4.30784 12.7338C4.28867 12.6635 4.21837 12.5261 4.15446 12.4302C4.07778 12.3216 3.96914 12.2161 3.86369 12.149C3.74227 12.0755 3.63043 12.0372 3.47067 12.0148C3.34605 11.9988 2.94344 11.9861 2.57598 11.9893C2.20533 11.9893 1.82509 12.002 1.72923 12.0148Z" stroke="#151515" stroke-width="0.5"/>
<path d="M22.0098 12.0915C22.0769 12.0628 22.2015 12.0276 22.291 12.0148C22.3773 11.9988 22.8246 11.9925 23.2816 11.9957C24.0101 12.0052 24.1315 12.0116 24.2689 12.0659C24.3552 12.0979 24.4958 12.1938 24.5788 12.28C24.6651 12.3631 24.7674 12.4973 24.8089 12.5836C24.8664 12.7082 24.8792 12.7817 24.876 13.0054C24.8728 13.1779 24.8536 13.3217 24.8185 13.3984C24.7897 13.4623 24.7067 13.5837 24.63 13.6668C24.5533 13.7531 24.4159 13.8521 24.1123 13.9959H23.1857C22.3869 13.9959 22.2367 13.9895 22.0993 13.9416C21.9906 13.9032 21.8788 13.8234 21.7446 13.6924C21.5816 13.5326 21.5369 13.4687 21.4922 13.3089C21.4538 13.1779 21.4411 13.0533 21.4506 12.9095C21.4602 12.7881 21.4954 12.6443 21.5369 12.5676C21.5721 12.4909 21.6679 12.3663 21.7478 12.2864C21.8277 12.2065 21.9459 12.1203 22.0098 12.0915Z" stroke="#151515" stroke-width="0.5"/>
<path d="M5.99496 18.7282C5.92466 18.7377 5.79685 18.7793 5.70738 18.824C5.59235 18.8783 5.37507 19.0764 4.93092 19.5238C4.45163 20.0063 4.29186 20.1852 4.22796 20.3226C4.16405 20.46 4.14488 20.5463 4.14488 20.722C4.14488 20.885 4.16725 20.9904 4.21837 21.1055C4.25671 21.1949 4.34938 21.3259 4.42287 21.4026C4.49636 21.4761 4.64335 21.5752 4.74879 21.6231C4.89258 21.687 4.98844 21.7094 5.13223 21.7094C5.25365 21.7094 5.39424 21.6806 5.51566 21.6327C5.68501 21.5688 5.77768 21.4921 6.32408 20.9489C6.75225 20.5271 6.96953 20.2875 7.02385 20.1788C7.08136 20.0702 7.11332 19.9488 7.1229 19.7954C7.13249 19.6324 7.1229 19.5238 7.08136 19.396C7.04302 19.2809 6.96953 19.1659 6.87686 19.0637C6.79698 18.9806 6.65639 18.8719 6.57011 18.8272C6.48065 18.7825 6.34644 18.7377 6.26656 18.7282C6.18668 18.7154 6.06206 18.7154 5.99496 18.7282Z" stroke="#151515" stroke-width="0.5"/>
<path d="M19.198 18.8016C19.2651 18.7729 19.3897 18.7409 19.4727 18.7282C19.559 18.7186 19.6932 18.7154 19.7763 18.7282C19.8594 18.7409 19.9968 18.7857 20.0862 18.8304C20.1853 18.8815 20.361 19.0317 20.5496 19.2298C20.6654 19.3501 20.8295 19.5249 20.9723 19.677L20.9733 19.678C21.0348 19.7436 21.0927 19.8052 21.1407 19.8561C21.3005 20.0286 21.4634 20.2363 21.5082 20.3194C21.5753 20.444 21.588 20.5079 21.588 20.754C21.588 21 21.5753 21.0639 21.505 21.2013C21.457 21.2908 21.3644 21.4122 21.2973 21.4761C21.227 21.5368 21.0896 21.6199 20.9873 21.6583C20.8787 21.6998 20.7317 21.7285 20.6199 21.7285C20.5208 21.7285 20.3642 21.7062 20.278 21.6774C20.1885 21.6487 20.0735 21.5912 20.0223 21.5528C19.968 21.5145 19.6709 21.2269 19.3577 20.9105C18.9295 20.4792 18.7698 20.2939 18.7059 20.1628C18.6356 20.0191 18.6196 19.9424 18.6196 19.7315C18.6196 19.5302 18.6356 19.4407 18.6995 19.3033C18.7442 19.2043 18.8401 19.0732 18.9264 18.9934C19.0126 18.9167 19.134 18.8304 19.198 18.8016Z" stroke="#151515" stroke-width="0.5"/>
<path d="M12.9767 21.5592C12.916 21.5528 12.801 21.5592 12.7211 21.5688C12.6412 21.5816 12.5134 21.6263 12.4335 21.6646C12.3536 21.7062 12.2322 21.7956 12.1651 21.8691C12.098 21.9426 12.0117 22.0641 11.9734 22.1439C11.9095 22.2813 11.9063 22.3389 11.9063 23.2783C11.9063 24.2241 11.9095 24.2752 11.9734 24.4126C12.0117 24.4925 12.114 24.6267 12.197 24.7098C12.2833 24.796 12.4175 24.8951 12.4974 24.9334C12.606 24.9846 12.6987 25.0005 12.8808 25.0005C13.0534 25.0005 13.162 24.9814 13.2643 24.9366C13.3442 24.8983 13.4784 24.8056 13.5678 24.7257C13.6669 24.6395 13.7595 24.5149 13.8075 24.4094C13.881 24.2433 13.8842 24.2081 13.8969 23.4061C13.9065 22.8565 13.8969 22.5114 13.8714 22.3836C13.8522 22.2781 13.7883 22.1152 13.734 22.0193C13.6765 21.9267 13.5742 21.8116 13.5039 21.7605C13.4336 21.7126 13.3122 21.6519 13.2323 21.6231C13.1524 21.5975 13.0374 21.5688 12.9767 21.5592Z" stroke="#151515" stroke-width="0.5"/>
</svg>
