<svg width="24" height="24" viewBox="0 0 24 24" fill="none" xmlns="http://www.w3.org/2000/svg">
<path d="M12.7 19.3C12.8833 19.1167 12.9793 18.8833 12.988 18.6C12.9967 18.3167 12.909 18.0833 12.725 17.9L7.825 13H19C19.2833 13 19.521 12.904 19.713 12.712C19.905 12.52 20.0007 12.2827 20 12C20 11.7167 19.904 11.479 19.712 11.287C19.52 11.095 19.2827 10.9993 19 11H7.825L12.725 6.09999C12.9083 5.91665 12.996 5.68332 12.988 5.39999C12.98 5.11665 12.884 4.88332 12.7 4.69999C12.5167 4.51665 12.2833 4.42499 12 4.42499C11.7167 4.42499 11.4833 4.51665 11.3 4.69999L4.7 11.3C4.6 11.3833 4.529 11.4877 4.487 11.613C4.445 11.7383 4.42433 11.8673 4.425 12C4.425 12.1333 4.44567 12.2583 4.487 12.375C4.52833 12.4917 4.59933 12.6 4.7 12.7L11.3 19.3C11.4833 19.4833 11.7167 19.575 12 19.575C12.2833 19.575 12.5167 19.4833 12.7 19.3Z" fill="#151515"/>
</svg>
